<mxfile host="app.diagrams.net" agent="Mozilla/5.0 (Macintosh; Intel Mac OS X 10_15_7) AppleWebKit/537.36 (KHTML, like Gecko) Chrome/127.0.0.0 Safari/537.36" version="24.7.7">
  <diagram name="Page-1" id="QjPf-KvjnZ2ur1T1kfqj">
    <mxGraphModel dx="856" dy="499" grid="1" gridSize="10" guides="1" tooltips="1" connect="1" arrows="1" fold="1" page="1" pageScale="1" pageWidth="850" pageHeight="1100" math="0" shadow="0">
      <root>
        <mxCell id="0" />
        <mxCell id="1" parent="0" />
        <mxCell id="l21NFkD1L5NijuYAb22K-5" value="Set" style="html=1;verticalAlign=bottom;endArrow=block;curved=0;rounded=0;" edge="1" parent="1" target="l21NFkD1L5NijuYAb22K-3">
          <mxGeometry width="80" relative="1" as="geometry">
            <mxPoint x="130" y="120" as="sourcePoint" />
            <mxPoint x="210" y="120" as="targetPoint" />
          </mxGeometry>
        </mxCell>
        <mxCell id="l21NFkD1L5NijuYAb22K-7" value="Lookup" style="html=1;verticalAlign=bottom;endArrow=block;curved=0;rounded=0;" edge="1" parent="1" target="l21NFkD1L5NijuYAb22K-6">
          <mxGeometry x="0.1429" y="10" width="80" relative="1" as="geometry">
            <mxPoint x="276.00488372093037" y="130" as="sourcePoint" />
            <mxPoint x="450.4699999999999" y="130" as="targetPoint" />
            <mxPoint as="offset" />
          </mxGeometry>
        </mxCell>
        <mxCell id="l21NFkD1L5NijuYAb22K-9" value="grpcLookup" style="html=1;verticalAlign=bottom;endArrow=block;curved=0;rounded=0;" edge="1" parent="1" target="l21NFkD1L5NijuYAb22K-8">
          <mxGeometry x="0.0042" width="80" relative="1" as="geometry">
            <mxPoint x="460" y="140" as="sourcePoint" />
            <mxPoint x="540" y="140" as="targetPoint" />
            <mxPoint as="offset" />
          </mxGeometry>
        </mxCell>
        <mxCell id="l21NFkD1L5NijuYAb22K-11" value="dbLookup" style="html=1;verticalAlign=bottom;endArrow=block;curved=0;rounded=0;" edge="1" parent="1">
          <mxGeometry width="80" relative="1" as="geometry">
            <mxPoint x="459.63043478260875" y="160" as="sourcePoint" />
            <mxPoint x="659.5" y="160" as="targetPoint" />
          </mxGeometry>
        </mxCell>
        <mxCell id="l21NFkD1L5NijuYAb22K-12" value="return bool" style="html=1;verticalAlign=bottom;endArrow=open;dashed=1;endSize=8;curved=0;rounded=0;" edge="1" parent="1" target="l21NFkD1L5NijuYAb22K-6">
          <mxGeometry relative="1" as="geometry">
            <mxPoint x="580" y="180" as="sourcePoint" />
            <mxPoint x="500" y="180" as="targetPoint" />
          </mxGeometry>
        </mxCell>
        <mxCell id="l21NFkD1L5NijuYAb22K-3" value="«interface»&lt;br&gt;&lt;b&gt;FavoritesService&lt;/b&gt;" style="shape=umlLifeline;perimeter=lifelinePerimeter;whiteSpace=wrap;html=1;container=1;dropTarget=0;collapsible=0;recursiveResize=0;outlineConnect=0;portConstraint=eastwest;newEdgeStyle={&quot;curved&quot;:0,&quot;rounded&quot;:0};" vertex="1" parent="1">
          <mxGeometry x="200" y="40" width="150" height="280" as="geometry" />
        </mxCell>
        <mxCell id="l21NFkD1L5NijuYAb22K-4" value="" style="shape=umlLifeline;perimeter=lifelinePerimeter;whiteSpace=wrap;html=1;container=1;dropTarget=0;collapsible=0;recursiveResize=0;outlineConnect=0;portConstraint=eastwest;newEdgeStyle={&quot;curved&quot;:0,&quot;rounded&quot;:0};participant=umlActor;" vertex="1" parent="1">
          <mxGeometry x="120" y="40" width="20" height="280" as="geometry" />
        </mxCell>
        <mxCell id="l21NFkD1L5NijuYAb22K-6" value=":AssetSearchService" style="shape=umlLifeline;perimeter=lifelinePerimeter;whiteSpace=wrap;html=1;container=1;dropTarget=0;collapsible=0;recursiveResize=0;outlineConnect=0;portConstraint=eastwest;newEdgeStyle={&quot;curved&quot;:0,&quot;rounded&quot;:0};" vertex="1" parent="1">
          <mxGeometry x="400" y="40" width="120" height="280" as="geometry" />
        </mxCell>
        <mxCell id="l21NFkD1L5NijuYAb22K-8" value="asset" style="shape=umlLifeline;perimeter=lifelinePerimeter;whiteSpace=wrap;html=1;container=1;dropTarget=0;collapsible=0;recursiveResize=0;outlineConnect=0;portConstraint=eastwest;newEdgeStyle={&quot;curved&quot;:0,&quot;rounded&quot;:0};participant=umlEntity;" vertex="1" parent="1">
          <mxGeometry x="560" y="40" width="40" height="280" as="geometry" />
        </mxCell>
        <mxCell id="l21NFkD1L5NijuYAb22K-10" value="DB" style="shape=umlLifeline;perimeter=lifelinePerimeter;whiteSpace=wrap;html=1;container=1;dropTarget=0;collapsible=0;recursiveResize=0;outlineConnect=0;portConstraint=eastwest;newEdgeStyle={&quot;curved&quot;:0,&quot;rounded&quot;:0};participant=umlEntity;" vertex="1" parent="1">
          <mxGeometry x="640" y="40" width="40" height="280" as="geometry" />
        </mxCell>
        <mxCell id="l21NFkD1L5NijuYAb22K-16" value="Commit / rollback" style="html=1;verticalAlign=bottom;endArrow=open;dashed=1;endSize=8;curved=0;rounded=0;" edge="1" parent="1">
          <mxGeometry relative="1" as="geometry">
            <mxPoint x="659.5" y="267.5" as="sourcePoint" />
            <mxPoint x="274.63043478260875" y="267.5" as="targetPoint" />
          </mxGeometry>
        </mxCell>
        <mxCell id="l21NFkD1L5NijuYAb22K-13" value="return bool" style="html=1;verticalAlign=bottom;endArrow=open;dashed=1;endSize=8;curved=0;rounded=0;" edge="1" parent="1">
          <mxGeometry relative="1" as="geometry">
            <mxPoint x="659.5" y="200.00375" as="sourcePoint" />
            <mxPoint x="459.63043478260875" y="200.00375" as="targetPoint" />
          </mxGeometry>
        </mxCell>
        <mxCell id="l21NFkD1L5NijuYAb22K-14" value="return bool" style="html=1;verticalAlign=bottom;endArrow=open;dashed=1;endSize=8;curved=0;rounded=0;" edge="1" parent="1">
          <mxGeometry relative="1" as="geometry">
            <mxPoint x="460" y="220" as="sourcePoint" />
            <mxPoint x="274.63043478260875" y="220" as="targetPoint" />
          </mxGeometry>
        </mxCell>
        <mxCell id="l21NFkD1L5NijuYAb22K-15" value="Upsert transaction" style="html=1;verticalAlign=bottom;endArrow=block;curved=0;rounded=0;" edge="1" parent="1">
          <mxGeometry width="80" relative="1" as="geometry">
            <mxPoint x="274.63043478260875" y="250" as="sourcePoint" />
            <mxPoint x="659.5" y="250" as="targetPoint" />
          </mxGeometry>
        </mxCell>
        <mxCell id="l21NFkD1L5NijuYAb22K-17" value="return response" style="html=1;verticalAlign=bottom;endArrow=open;dashed=1;endSize=8;curved=0;rounded=0;" edge="1" parent="1">
          <mxGeometry relative="1" as="geometry">
            <mxPoint x="274.5" y="280" as="sourcePoint" />
            <mxPoint x="129.63043478260875" y="280" as="targetPoint" />
          </mxGeometry>
        </mxCell>
      </root>
    </mxGraphModel>
  </diagram>
</mxfile>
